# xmcd CD database file
#
# Track frame offsets:
#	187
#	17892
#	37732
#	55407
#
# Disc length: 1001 seconds
#
# Revision: 0
# Processed by: cddbd v1.4PL0 Copyright (c) Steve Scherf et al.
# Submitted via: CD2WAV32(EN) R3.17
#
DISCID=2903e704
DTITLE=ARAI Akino - Shounen no Hane
DYEAR=1900
DGENRE=
TTITLE0=Shounen no Hane
TTITLE1=Hana no Omokage
TTITLE2=Shounen no Hane Oke
TTITLE3=Hana no Omokage Oke
EXTD=
EXTT0=
EXTT1=
EXTT2=
EXTT3=
PLAYORDER=
